# xmcd CD database file
#
# Track frame offsets:
#	150
#	26171
#	48901
#	71811
#	84261
#	108936
#	130484
#	150053
#	164788
#
# Disc length: 2465 seconds
#
# Revision: 0
# Processed by: cddbd v1.5.2PL0 Copyright (c) Steve Scherf et al.
# Submitted via: CDex 1.51
#
DISCID=6f099f09
DTITLE=Gigi Cifarelli - coca and rum
DYEAR=1995
DGENRE=Blues
TTITLE0=Cantaloupe Island
TTITLE1=Saudade
TTITLE2=Coca and Rum
TTITLE3=I Can't Get Started
TTITLE4=Ben...Sonata!
TTITLE5=Donnalisa
TTITLE6=Monk and Funk
TTITLE7=Angieswing
TTITLE8=Borsa Nuova
EXTD=YEAR: 1995
EXTT0=
EXTT1=
EXTT2=
EXTT3=
EXTT4=
EXTT5=
EXTT6=
EXTT7=
EXTT8=
PLAYORDER=
